<mxfile host="app.diagrams.net" modified="2022-09-19T08:54:12.148Z" agent="5.0 (Windows NT 10.0; Win64; x64) AppleWebKit/537.36 (KHTML, like Gecko) Chrome/105.0.0.0 Safari/537.36 Edg/105.0.1343.33" etag="U-eZVZWhQ5ZhUzceDC5Z" version="20.3.0" type="github">
  <diagram id="C5RBs43oDa-KdzZeNtuy" name="Page-1">
    <mxGraphModel dx="1550" dy="867" grid="1" gridSize="10" guides="1" tooltips="1" connect="1" arrows="1" fold="1" page="1" pageScale="1" pageWidth="827" pageHeight="1169" math="0" shadow="0">
      <root>
        <mxCell id="WIyWlLk6GJQsqaUBKTNV-0" />
        <mxCell id="WIyWlLk6GJQsqaUBKTNV-1" parent="WIyWlLk6GJQsqaUBKTNV-0" />
        <mxCell id="YwwYJsGPN3-Y0xMFqPzo-3" value="" style="edgeStyle=orthogonalEdgeStyle;rounded=0;orthogonalLoop=1;jettySize=auto;html=1;fontSize=14;exitX=0;exitY=0.5;exitDx=0;exitDy=0;" edge="1" parent="WIyWlLk6GJQsqaUBKTNV-1" source="YwwYJsGPN3-Y0xMFqPzo-0" target="YwwYJsGPN3-Y0xMFqPzo-2">
          <mxGeometry relative="1" as="geometry" />
        </mxCell>
        <mxCell id="YwwYJsGPN3-Y0xMFqPzo-5" style="edgeStyle=orthogonalEdgeStyle;rounded=0;orthogonalLoop=1;jettySize=auto;html=1;exitX=1;exitY=0.5;exitDx=0;exitDy=0;fontSize=14;" edge="1" parent="WIyWlLk6GJQsqaUBKTNV-1" source="YwwYJsGPN3-Y0xMFqPzo-0" target="YwwYJsGPN3-Y0xMFqPzo-4">
          <mxGeometry relative="1" as="geometry" />
        </mxCell>
        <mxCell id="YwwYJsGPN3-Y0xMFqPzo-0" value="&lt;font style=&quot;font-size: 14px;&quot;&gt;清洗后输入数据&lt;/font&gt;" style="rounded=0;whiteSpace=wrap;html=1;" vertex="1" parent="WIyWlLk6GJQsqaUBKTNV-1">
          <mxGeometry x="300" y="130" width="140" height="40" as="geometry" />
        </mxCell>
        <mxCell id="YwwYJsGPN3-Y0xMFqPzo-11" style="edgeStyle=orthogonalEdgeStyle;rounded=0;orthogonalLoop=1;jettySize=auto;html=1;exitX=0.5;exitY=1;exitDx=0;exitDy=0;entryX=0.5;entryY=0;entryDx=0;entryDy=0;fontSize=14;" edge="1" parent="WIyWlLk6GJQsqaUBKTNV-1" source="YwwYJsGPN3-Y0xMFqPzo-1" target="YwwYJsGPN3-Y0xMFqPzo-0">
          <mxGeometry relative="1" as="geometry" />
        </mxCell>
        <mxCell id="YwwYJsGPN3-Y0xMFqPzo-1" value="&lt;font style=&quot;font-size: 14px;&quot;&gt;开始&lt;/font&gt;" style="rounded=1;whiteSpace=wrap;html=1;" vertex="1" parent="WIyWlLk6GJQsqaUBKTNV-1">
          <mxGeometry x="320" y="60" width="100" height="40" as="geometry" />
        </mxCell>
        <mxCell id="YwwYJsGPN3-Y0xMFqPzo-7" style="edgeStyle=orthogonalEdgeStyle;rounded=0;orthogonalLoop=1;jettySize=auto;html=1;exitX=0.5;exitY=1;exitDx=0;exitDy=0;entryX=0;entryY=0.5;entryDx=0;entryDy=0;fontSize=14;" edge="1" parent="WIyWlLk6GJQsqaUBKTNV-1" source="YwwYJsGPN3-Y0xMFqPzo-2" target="YwwYJsGPN3-Y0xMFqPzo-6">
          <mxGeometry relative="1" as="geometry" />
        </mxCell>
        <mxCell id="YwwYJsGPN3-Y0xMFqPzo-2" value="&lt;font style=&quot;font-size: 14px;&quot;&gt;强ID构造节点&lt;/font&gt;" style="whiteSpace=wrap;html=1;rounded=0;" vertex="1" parent="WIyWlLk6GJQsqaUBKTNV-1">
          <mxGeometry x="180" y="200" width="120" height="40" as="geometry" />
        </mxCell>
        <mxCell id="YwwYJsGPN3-Y0xMFqPzo-8" style="edgeStyle=orthogonalEdgeStyle;rounded=0;orthogonalLoop=1;jettySize=auto;html=1;exitX=0.5;exitY=1;exitDx=0;exitDy=0;entryX=1;entryY=0.5;entryDx=0;entryDy=0;fontSize=14;" edge="1" parent="WIyWlLk6GJQsqaUBKTNV-1" source="YwwYJsGPN3-Y0xMFqPzo-4" target="YwwYJsGPN3-Y0xMFqPzo-6">
          <mxGeometry relative="1" as="geometry" />
        </mxCell>
        <mxCell id="YwwYJsGPN3-Y0xMFqPzo-4" value="&lt;font style=&quot;font-size: 14px;&quot;&gt;强ID构造边&lt;/font&gt;" style="rounded=0;whiteSpace=wrap;html=1;" vertex="1" parent="WIyWlLk6GJQsqaUBKTNV-1">
          <mxGeometry x="440" y="200" width="116" height="40" as="geometry" />
        </mxCell>
        <mxCell id="YwwYJsGPN3-Y0xMFqPzo-10" style="edgeStyle=orthogonalEdgeStyle;rounded=0;orthogonalLoop=1;jettySize=auto;html=1;exitX=0.5;exitY=1;exitDx=0;exitDy=0;entryX=0.5;entryY=0;entryDx=0;entryDy=0;fontSize=14;" edge="1" parent="WIyWlLk6GJQsqaUBKTNV-1" source="YwwYJsGPN3-Y0xMFqPzo-6" target="YwwYJsGPN3-Y0xMFqPzo-9">
          <mxGeometry relative="1" as="geometry" />
        </mxCell>
        <mxCell id="YwwYJsGPN3-Y0xMFqPzo-6" value="&lt;font style=&quot;font-size: 14px;&quot;&gt;强ID图计算&lt;/font&gt;" style="rounded=0;whiteSpace=wrap;html=1;" vertex="1" parent="WIyWlLk6GJQsqaUBKTNV-1">
          <mxGeometry x="300" y="270" width="140" height="40" as="geometry" />
        </mxCell>
        <mxCell id="YwwYJsGPN3-Y0xMFqPzo-14" style="edgeStyle=orthogonalEdgeStyle;rounded=0;orthogonalLoop=1;jettySize=auto;html=1;exitX=0.5;exitY=1;exitDx=0;exitDy=0;entryX=0.5;entryY=0;entryDx=0;entryDy=0;fontSize=14;" edge="1" parent="WIyWlLk6GJQsqaUBKTNV-1" source="YwwYJsGPN3-Y0xMFqPzo-9" target="YwwYJsGPN3-Y0xMFqPzo-12">
          <mxGeometry relative="1" as="geometry" />
        </mxCell>
        <mxCell id="YwwYJsGPN3-Y0xMFqPzo-9" value="&lt;font style=&quot;font-size: 14px;&quot;&gt;输出OneID-强ID关系&lt;/font&gt;" style="rounded=0;whiteSpace=wrap;html=1;" vertex="1" parent="WIyWlLk6GJQsqaUBKTNV-1">
          <mxGeometry x="290" y="340" width="160" height="40" as="geometry" />
        </mxCell>
        <mxCell id="YwwYJsGPN3-Y0xMFqPzo-12" value="&lt;font style=&quot;font-size: 14px;&quot;&gt;结束&lt;/font&gt;" style="rounded=1;whiteSpace=wrap;html=1;" vertex="1" parent="WIyWlLk6GJQsqaUBKTNV-1">
          <mxGeometry x="320" y="410" width="100" height="40" as="geometry" />
        </mxCell>
      </root>
    </mxGraphModel>
  </diagram>
</mxfile>
